<svg width="275" height="48" viewBox="0 0 275 48" fill="none" xmlns="http://www.w3.org/2000/svg">
<path d="M52.1724 9.87891L57.7499 31.3972L63.506 9.87891H68.1381L73.6736 31.1846L79.2512 9.87891H82.3603L75.1652 36.963H70.3019L64.945 16.0118L59.2729 36.963H54.4097L47.162 9.87891H52.1514H52.1724Z" fill="#F1E2A6"/>
<path d="M85.732 2.94237C85.732 1.27621 86.8979 0 88.4735 0C89.9545 0 91.173 1.26439 91.173 2.94237C91.173 4.62036 89.9545 5.87293 88.4735 5.87293C86.8979 5.87293 85.732 4.60854 85.732 2.94237ZM86.0891 9.87883H90.8158V36.9629H86.0891V9.87883Z" fill="#F1E2A6"/>
<path d="M94.8178 30.8892L96.7925 29.3648C98.4101 32.6499 100.931 34.2806 104.303 34.2806C107.674 34.2806 109.744 32.5081 109.744 29.6721C109.744 26.9897 107.99 26.127 103.62 24.9099L102.675 24.6618C97.9479 23.291 95.5635 20.6677 95.5635 16.8627C95.5635 12.0533 98.9352 9.37085 103.977 9.37085C109.019 9.37085 111.897 12.006 113.336 15.2911L111.361 16.8154C109.691 13.8258 107.853 12.5614 104.838 12.5614C101.824 12.5614 100.385 13.7194 100.385 16.0591C100.343 17.9853 101.603 18.9424 102.906 19.6042C103.315 19.8051 104.303 20.065 104.618 20.2068C104.975 20.2541 106.099 20.5613 106.288 20.6086C111.508 21.8257 114.565 24 114.565 28.8567C114.565 31.6455 113.62 33.8198 111.771 35.285C109.922 36.7503 107.632 37.4593 104.796 37.4593C99.7125 37.4593 96.2883 34.9305 94.8073 30.8774L94.8178 30.8892Z" fill="#F1E2A6"/>
<path d="M137.967 30.3812L139.858 31.7992C138.104 35.037 134.774 37.4713 130.09 37.4713C126.445 37.4713 123.43 36.1596 121.046 33.5245C118.661 30.8893 117.443 27.6043 117.443 23.6575C117.443 19.7107 118.567 16.3665 120.815 13.5896C123.105 10.8008 125.941 9.38281 129.365 9.38281C132.6 9.38281 135.299 10.6472 137.421 13.2351C139.532 15.8229 140.614 19.3089 140.614 23.7638H122.212C122.306 26.5999 123.063 29.0814 124.502 31.1493C125.983 33.2291 128.146 34.2926 131.024 34.2926C133.902 34.2926 135.751 33.1818 137.957 30.393L137.967 30.3812ZM125.058 14.8422C123.756 16.3665 122.894 18.2808 122.495 20.6087H135.993C135.951 18.529 135.226 16.6619 133.923 15.043C132.621 13.3769 131.129 12.5615 129.47 12.5615C127.81 12.5615 126.361 13.3178 125.058 14.8422Z" fill="#F1E2A6"/>
<path d="M0 33.8552V28.5258L15.0204 23.3264L0 18.7179V13.424L17.6884 6.60571L35.3768 13.424V18.1271L20.3564 23.3264L35.3768 28.5849V33.2289L17.6884 40.0472L0 33.8906V33.8552ZM3.0356 30.8774L17.6884 35.6986L32.3412 30.8774L17.6884 26.1625L3.0356 30.8774ZM3.0356 15.7519L17.6884 20.4668L32.3412 15.7519L17.6884 10.9307L3.0356 15.7519Z" fill="#F1E2A6"/>
<path d="M148.303 28.2422C148.303 20.1831 153.954 10.0562 161.601 10.0562C164.658 10.0562 166.947 11.4269 166.947 14.3456C166.947 16.7445 164.962 20.8685 156.402 23.1019L151.507 24.3072C151.349 25.3352 151.202 26.5406 151.202 27.5686C151.202 32.5435 153.345 34.9423 156.244 34.9423C158.229 34.9423 160.519 33.5715 162.515 30.83L163.586 29.2821L164.353 30.1447L163.586 31.5154C160.992 35.6277 158.082 37.3529 155.33 37.3529C151.202 37.3529 148.303 34.0915 148.303 28.254V28.2422ZM156.097 21.8966C162.368 20.0059 164.048 16.9217 164.048 14.5229C164.048 12.4668 162.672 11.4387 160.687 11.4387C156.412 11.4387 152.893 17.4416 151.822 23.2791L156.097 21.9084V21.8966Z" fill="#F1E2A6"/>
<path d="M173.67 12.7977L170.151 12.2778V11.5924L176.107 10.5644H176.873V11.0843L172.294 30.4756H172.598L176.422 21.3767C180.55 11.7697 182.84 10.2217 185.287 10.2217C188.806 10.2217 190.024 13.3059 188.501 18.9779L185.14 31.5037C184.531 33.5598 184.835 34.7651 185.907 34.7651C186.821 34.7651 187.43 33.7371 188.501 31.5037L190.182 27.8996L191.096 28.4195L189.415 32.0236C187.734 35.4505 186.663 36.6558 184.835 36.6558C182.693 36.6558 181.474 34.9424 182.546 30.8183L185.907 18.4698C186.978 14.523 186.369 12.4669 184.226 12.4669C182.241 12.4669 180.707 14.3575 175.214 25.8553L171.695 33.5716L171.086 36.3131H168.334L173.68 12.8096L173.67 12.7977Z" fill="#F1E2A6"/>
<path d="M194.152 28.2422C194.152 20.1831 199.803 10.0562 207.45 10.0562C210.507 10.0562 212.796 11.4269 212.796 14.3456C212.796 16.7445 210.811 20.8685 202.251 23.1019L197.356 24.3072C197.198 25.3352 197.051 26.5406 197.051 27.5686C197.051 32.5435 199.194 34.9423 202.093 34.9423C204.078 34.9423 206.368 33.5715 208.364 30.83L209.435 29.2821L210.202 30.1447L209.435 31.5154C206.841 35.6277 203.931 37.3529 201.179 37.3529C197.051 37.3529 194.152 34.0915 194.152 28.254V28.2422ZM201.946 21.8966C208.217 20.0059 209.897 16.9217 209.897 14.5229C209.897 12.4668 208.521 11.4387 206.536 11.4387C202.261 11.4387 198.742 17.4416 197.671 23.2791L201.946 21.9084V21.8966Z" fill="#F1E2A6"/>
<path d="M219.676 12.7978L216.158 12.2779V11.5925L222.113 10.5645H222.88V11.0844L218.3 30.4757H218.763L223.038 20.006C225.79 13.1405 227.47 10.5645 230.527 10.5645H230.989V13.9913H230.38C226.861 13.9913 225.485 16.2247 221.977 24.2837L217.544 34.2335L217.082 36.2896H214.33L219.676 12.786V12.7978Z" fill="#F1E2A6"/>
<path d="M225.937 42.3162C225.937 39.3974 228.079 36.9986 231.136 35.1079L232.659 33.9026C231.136 32.6973 231.283 30.4757 233.268 28.2424L234.644 26.5289C232.964 25.3236 232.05 23.4448 232.05 20.8687C232.05 15.2085 236.945 10.0564 243.205 10.0564C244.581 10.0564 245.652 10.399 246.724 10.919C248.1 9.71366 251.619 8.34293 253.299 8.17749H253.604V10.919C251.461 10.919 249.476 11.0962 247.491 11.2617C249.171 12.467 250.085 14.3458 250.085 16.9219C250.085 22.5821 245.19 27.7343 239.077 27.7343C237.701 27.7343 236.483 27.3916 235.411 26.8716L234.802 28.5851C234.34 29.7904 233.888 30.9839 234.035 31.6692L241.829 32.3546C246.104 32.6973 248.404 34.2453 248.404 37.164C248.404 42.6588 240.915 47.4565 233.583 47.4565C228.689 47.4565 225.947 45.4003 225.947 42.3043L225.937 42.3162ZM234.644 46.263C240.295 46.263 245.495 42.3162 245.495 38.5466C245.495 36.6559 244.276 35.4624 241.062 35.1197L234.791 34.5998C234.329 34.5998 233.878 34.4225 233.415 34.2571L232.039 35.6279C229.592 38.0267 228.521 39.9173 228.521 41.808C228.521 44.5495 230.81 46.2748 234.634 46.2748L234.644 46.263ZM239.686 26.5289C243.961 26.5289 247.322 21.3768 247.322 16.7447C247.322 13.3178 245.337 11.2498 242.585 11.2498C238.457 11.2498 235.096 16.0593 235.096 21.0341C234.938 24.6383 236.934 26.5289 239.676 26.5289H239.686Z" fill="#F1E2A6"/>
<path d="M270.567 9.71338L270.105 12.9748C272.248 12.9748 273.319 14.3455 273.319 17.607C273.319 23.7872 269.801 32.3661 263.687 38.0264L264.759 15.5509C264.916 12.4667 263.383 10.3988 261.398 10.3988C259.875 10.3988 258.341 11.2614 256.965 14.3456L255.589 17.4297L256.356 17.7724L257.574 15.3736C258.793 12.9748 259.412 12.4549 260.326 12.4549C261.545 12.4549 261.849 13.6602 261.702 15.3736L260.935 40.2597C259.864 40.9451 255.736 43.5212 250.852 44.8919L251.314 47.2907C267.668 41.1105 274.538 27.8994 275 15.7163C275 11.6041 273.477 9.71338 270.567 9.71338Z" fill="#F1E2A6"/>
</svg>
