<svg width="164" height="34" viewBox="0 0 164 34" fill="none" xmlns="http://www.w3.org/2000/svg">
<path d="M3.60647 7.07764L7.62122 22.4944L11.7645 7.07764H15.0988L19.0833 22.342L23.0981 7.07764H25.336L20.1569 26.4819H16.6563L12.8003 11.4715L8.71753 26.4819H5.21691L0 7.07764H3.59135H3.60647Z" fill="#F1E2A6"/>
<path d="M27.7631 2.10806C27.7631 0.914337 28.6023 0 29.7364 0C30.8025 0 31.6795 0.905871 31.6795 2.10806C31.6795 3.31024 30.8025 4.20765 29.7364 4.20765C28.6023 4.20765 27.7631 3.30178 27.7631 2.10806ZM28.0201 7.07766H31.4225V26.482H28.0201V7.07766Z" fill="#F1E2A6"/>
<path d="M34.3031 22.1306L35.7245 21.0385C36.8889 23.3921 38.7034 24.5604 41.1304 24.5604C43.5574 24.5604 45.0469 23.2905 45.0469 21.2586C45.0469 19.3368 43.7843 18.7188 40.639 17.8468L39.9585 17.669C36.5562 16.6869 34.8399 14.8075 34.8399 12.0814C34.8399 8.63567 37.2669 6.71387 40.8961 6.71387C44.5252 6.71387 46.5969 8.60182 47.6327 10.9554L46.2113 12.0475C45.0091 9.90559 43.686 8.99971 41.516 8.99971C39.3461 8.99971 38.3103 9.82939 38.3103 11.5057C38.28 12.8857 39.1873 13.5714 40.1249 14.0455C40.4197 14.1894 41.1304 14.3757 41.3573 14.4773C41.6143 14.5111 42.4233 14.7313 42.5594 14.7651C46.3171 15.6371 48.5173 17.1949 48.5173 20.6745C48.5173 22.6725 47.8368 24.2302 46.5061 25.28C45.1754 26.3298 43.5272 26.8378 41.4858 26.8378C37.8264 26.8378 35.3616 25.026 34.2955 22.1222L34.3031 22.1306Z" fill="#F1E2A6"/>
<path d="M65.3626 21.7664L66.7235 22.7824C65.4609 25.1021 63.0641 26.8461 59.6921 26.8461C57.0685 26.8461 54.8985 25.9063 53.1823 24.0184C51.466 22.1305 50.5889 19.7769 50.5889 16.9492C50.5889 14.1215 51.3979 11.7256 53.0159 9.7361C54.6642 7.7381 56.7056 6.72217 59.1704 6.72217C61.4991 6.72217 63.4422 7.62804 64.9694 9.48211C66.4892 11.3362 67.2679 13.8337 67.2679 17.0254H54.0215C54.0896 19.0573 54.6339 20.8352 55.6697 22.3167C56.7358 23.8068 58.2933 24.5687 60.365 24.5687C62.4366 24.5687 63.7673 23.7729 65.3551 21.7749L65.3626 21.7664ZM56.0705 10.6335C55.1329 11.7256 54.513 13.0971 54.2256 14.765H63.9412C63.9109 13.2749 63.3893 11.9373 62.4517 10.7774C61.5142 9.5837 60.4406 8.99954 59.246 8.99954C58.0514 8.99954 57.008 9.54137 56.0705 10.6335Z" fill="#F1E2A6"/>
<path d="M72.8024 20.2339C72.8024 14.46 76.87 7.20459 82.3743 7.20459C84.5744 7.20459 86.2227 8.18666 86.2227 10.2778C86.2227 11.9964 84.7937 14.9511 78.6317 16.5512L75.1084 17.4147C74.995 18.1513 74.8891 19.0148 74.8891 19.7514C74.8891 23.3156 76.4315 25.0342 78.5183 25.0342C79.9473 25.0342 81.5955 24.0521 83.032 22.088L83.8032 20.9789L84.3552 21.597L83.8032 22.579C81.9357 25.5252 79.8414 26.7613 77.8605 26.7613C74.8891 26.7613 72.8024 24.4246 72.8024 20.2424V20.2339ZM78.4124 15.6876C82.9262 14.3331 84.1359 12.1234 84.1359 10.4048C84.1359 8.93167 83.1455 8.19512 81.7165 8.19512C78.6393 8.19512 76.1064 12.4959 75.3352 16.6782L78.4124 15.6961V15.6876Z" fill="#F1E2A6"/>
<path d="M91.0616 9.16886L88.5287 8.79635V8.30531L92.8156 7.56877H93.3676V7.94126L90.0711 21.8341H90.2904L93.0425 15.3152C96.0138 8.4323 97.6621 7.32324 99.4237 7.32324C101.957 7.32324 102.834 9.5329 101.737 13.5966L99.3179 22.5707C98.8794 24.0438 99.0986 24.9073 99.8698 24.9073C100.528 24.9073 100.966 24.1708 101.737 22.5707L102.947 19.9885L103.605 20.361L102.395 22.9432C101.185 25.3984 100.414 26.2619 99.0986 26.2619C97.5562 26.2619 96.6792 25.0343 97.4504 22.0797L99.8698 13.2326C100.641 10.4049 100.202 8.93181 98.6601 8.93181C97.2311 8.93181 96.1273 10.2864 92.173 18.5239L89.6401 24.0523L89.2016 26.0164H87.2207L91.0691 9.17732L91.0616 9.16886Z" fill="#F1E2A6"/>
<path d="M105.805 20.2339C105.805 14.46 109.873 7.20459 115.377 7.20459C117.577 7.20459 119.225 8.18666 119.225 10.2778C119.225 11.9964 117.796 14.9511 111.634 16.5512L108.111 17.4147C107.998 18.1513 107.892 19.0148 107.892 19.7514C107.892 23.3156 109.434 25.0342 111.521 25.0342C112.95 25.0342 114.598 24.0521 116.035 22.088L116.806 20.9789L117.358 21.597L116.806 22.579C114.938 25.5252 112.844 26.7613 110.863 26.7613C107.892 26.7613 105.805 24.4246 105.805 20.2424V20.2339ZM111.415 15.6876C115.929 14.3331 117.139 12.1234 117.139 10.4048C117.139 8.93167 116.148 8.19512 114.719 8.19512C111.642 8.19512 109.109 12.4959 108.338 16.6782L111.415 15.6961V15.6876Z" fill="#F1E2A6"/>
<path d="M124.178 9.16894L121.645 8.79643V8.30539L125.932 7.56885H126.484V7.94135L123.187 21.8342H123.52L126.597 14.3333C128.578 9.41445 129.788 7.56885 131.988 7.56885H132.32V10.024H131.882C129.349 10.024 128.359 11.6241 125.833 17.398L122.643 24.5264L122.31 25.9995H120.329L124.178 9.16047V9.16894Z" fill="#F1E2A6"/>
<path d="M128.684 30.3172C128.684 28.2261 130.226 26.5075 132.426 25.1529L133.523 24.2893C132.426 23.4258 132.532 21.8342 133.961 20.2341L134.952 19.0065C133.742 18.143 133.084 16.7968 133.084 14.9512C133.084 10.896 136.607 7.20475 141.114 7.20475C142.104 7.20475 142.875 7.45026 143.647 7.82277C144.637 6.95923 147.17 5.97717 148.38 5.85864H148.599V7.82277C147.056 7.82277 145.627 7.94977 144.198 8.0683C145.408 8.93184 146.066 10.2779 146.066 12.1236C146.066 16.1788 142.543 19.87 138.142 19.87C137.152 19.87 136.275 19.6245 135.504 19.252L135.065 20.4796C134.732 21.3431 134.407 22.1982 134.513 22.6893L140.123 23.1803C143.2 23.4258 144.856 24.5349 144.856 26.626C144.856 30.5627 139.465 34 134.188 34C130.665 34 128.691 32.5269 128.691 30.3087L128.684 30.3172ZM134.952 33.1449C139.019 33.1449 142.762 30.3172 142.762 27.6165C142.762 26.2619 141.885 25.4069 139.571 25.1614L135.058 24.7888C134.725 24.7888 134.4 24.6618 134.067 24.5433L133.077 25.5254C131.315 27.244 130.544 28.5986 130.544 29.9532C130.544 31.9173 132.192 33.1534 134.944 33.1534L134.952 33.1449ZM138.581 19.0065C141.658 19.0065 144.078 15.3153 144.078 11.9966C144.078 9.5414 142.649 8.05982 140.668 8.05982C137.696 8.05982 135.277 11.5055 135.277 15.0698C135.163 17.6519 136.6 19.0065 138.573 19.0065H138.581Z" fill="#F1E2A6"/>
<path d="M160.809 6.95923L160.477 9.29587C162.019 9.29587 162.79 10.2779 162.79 12.6146C162.79 17.0423 160.257 23.1887 155.857 27.244L156.628 11.1415C156.742 8.93183 155.638 7.45026 154.209 7.45026C153.113 7.45026 152.009 8.06829 151.018 10.2779L150.028 12.4876L150.58 12.7331L151.457 11.0145C152.334 9.29587 152.78 8.92336 153.438 8.92336C154.315 8.92336 154.534 9.7869 154.428 11.0145L153.876 28.8441C153.105 29.3351 150.134 31.1807 146.618 32.1628L146.951 33.8814C158.723 29.4536 163.667 19.9886 164 11.26C164 8.31381 162.904 6.95923 160.809 6.95923Z" fill="#F1E2A6"/>
</svg>
